<?xml version="1.0" standalone="no"?>
<!DOCTYPE svg PUBLIC "-//W3C//DTD SVG 20010904//EN"
 "http://www.w3.org/TR/2001/REC-SVG-20010904/DTD/svg10.dtd">
<svg version="1.0" xmlns="http://www.w3.org/2000/svg"
 width="2957.000000pt" height="3339.000000pt" viewBox="0 0 2957.000000 3339.000000"
 preserveAspectRatio="xMidYMid meet">
<metadata>
Created by potrace 1.16, written by Peter Selinger 2001-2019
</metadata>
<g transform="translate(0.000000,3339.000000) scale(0.100000,-0.100000)"
fill="#000000" stroke="none">
<path d="M9330 30315 c-2995 -1692 -6319 -3570 -7387 -4173 l-1943 -1097 0
-8350 0 -8350 1393 -786 c765 -433 4088 -2309 7382 -4170 3295 -1861 5999
-3383 6010 -3383 11 0 3342 1876 7402 4169 l7383 4170 0 8350 0 8350 -693 391
c-11297 6381 -14072 7947 -14086 7950 -9 3 -2466 -1380 -5461 -3071z m5965
-910 c531 -1208 8948 -20291 8956 -20308 9 -16 -82 -17 -1893 -15 l-1903 3
-877 2290 c-482 1260 -891 2327 -908 2373 l-32 82 -3592 0 -3593 0 -130 -337
c-71 -186 -480 -1255 -908 -2375 l-780 -2038 -1899 0 c-1803 0 -1898 1 -1893
18 4 13 3178 7212 8744 19832 234 531 432 980 440 999 8 18 18 30 22 25 5 -5
115 -252 246 -549z"/>
<path d="M13835 19595 c-649 -1494 -1181 -2720 -1183 -2725 -2 -7 836 -10
2368 -10 2255 0 2372 1 2366 18 -27 70 -2361 5432 -2365 5432 -4 0 -537 -1222
-1186 -2715z"/>
</g>
</svg>
