<?xml version="1.0" standalone="no"?>
<!DOCTYPE svg PUBLIC "-//W3C//DTD SVG 20010904//EN"
 "http://www.w3.org/TR/2001/REC-SVG-20010904/DTD/svg10.dtd">
<svg version="1.0" xmlns="http://www.w3.org/2000/svg"
 width="2957.000000pt" height="3339.000000pt" viewBox="0 0 2957.000000 3339.000000"
 preserveAspectRatio="xMidYMid meet">

<g transform="translate(0.000000,3339.000000) scale(0.100000,-0.100000)"
fill="#000000" stroke="none">
<path d="M8980 30109 c-3193 -1803 -6517 -3681 -7387 -4171 l-1582 -893 2
-8349 2 -8348 7365 -4161 c4051 -2288 7376 -4164 7390 -4169 22 -9 818 438
7405 4159 l7380 4168 3 8350 2 8350 -7312 4130 c-4021 2272 -7346 4149 -7387
4171 l-76 42 -5805 -3279z m469 -7479 c1294 -102 2520 -567 3591 -1363 291
-217 497 -394 773 -666 327 -322 507 -531 818 -947 238 -320 371 -459 493
-519 69 -34 87 -39 150 -39 91 -1 155 22 246 85 112 79 215 192 465 514 129
165 292 368 363 450 228 264 641 651 1067 1000 1072 878 2118 1322 3410 1449
388 38 997 46 1320 16 910 -83 1637 -283 2365 -651 1394 -703 2448 -1938 2940
-3444 394 -1207 397 -2491 8 -3660 -450 -1354 -1394 -2474 -2736 -3246 -724
-416 -1487 -695 -2193 -799 -276 -40 -425 -52 -755 -57 -447 -7 -725 13 -1139
82 -1569 264 -3091 1113 -4206 2345 -140 155 -289 338 -458 563 -242 324 -357
447 -493 530 -79 47 -127 60 -204 54 -146 -11 -291 -141 -630 -562 -115 -143
-261 -321 -325 -395 -674 -786 -1504 -1435 -2419 -1891 -844 -420 -1689 -645
-2635 -700 -249 -15 -769 -6 -995 16 -1357 132 -2498 633 -3460 1520 -1421
1310 -2148 3332 -1899 5289 134 1058 562 2055 1221 2846 532 638 1253 1184
2057 1560 843 393 1626 587 2566 634 111 6 556 -4 694 -14z"/>
<path d="M21410 20510 c-993 -72 -1826 -383 -2644 -988 -397 -294 -692 -579
-1102 -1067 -567 -675 -968 -1266 -1080 -1590 -76 -221 8 -469 316 -930 371
-555 1134 -1416 1599 -1804 709 -591 1607 -1030 2376 -1161 406 -69 961 -77
1415 -19 780 99 1446 380 1995 841 116 98 361 348 450 461 160 202 279 385
391 602 416 804 543 1746 359 2670 -192 965 -714 1791 -1468 2323 -500 354
-1105 572 -1788 647 -172 19 -644 27 -819 15z m600 -2615 l0 -615 615 0 614 0
3 -562 c2 -310 2 -566 0 -570 -2 -5 -280 -8 -618 -8 l-614 0 0 -640 0 -640
-590 0 -590 0 0 640 0 640 -604 0 -604 0 -6 253 c-3 138 -7 395 -9 570 l-3
317 613 0 614 0 -3 610 -3 609 75 4 c41 1 308 4 593 5 l517 2 0 -615z"/>
<path d="M8647 20490 c-480 -26 -881 -111 -1283 -270 -798 -318 -1467 -893
-1907 -1637 -265 -449 -430 -939 -499 -1483 -21 -166 -18 -691 5 -860 96 -707
352 -1308 784 -1839 122 -150 394 -418 553 -545 391 -313 842 -556 1332 -720
800 -267 1690 -303 2478 -100 582 151 1169 455 1745 903 587 458 1250 1179
1702 1852 130 194 324 503 381 609 130 239 123 390 -29 663 -96 173 -319 534
-447 722 -1118 1655 -2509 2563 -4127 2694 -185 15 -513 20 -688 11z m2307
-3422 c3 -128 8 -389 11 -579 l6 -346 -1802 -6 c-990 -4 -1805 -4 -1810 -1 -5
3 -9 252 -9 580 l0 574 1253 3 c688 1 1498 3 1798 5 l547 2 6 -232z"/>
</g>
</svg>
