<?xml version="1.0" standalone="no"?>
<!DOCTYPE svg PUBLIC "-//W3C//DTD SVG 20010904//EN"
 "http://www.w3.org/TR/2001/REC-SVG-20010904/DTD/svg10.dtd">
<svg version="1.0" xmlns="http://www.w3.org/2000/svg"
 width="2956.000000pt" height="3340.000000pt" viewBox="0 0 2956.000000 3340.000000"
 preserveAspectRatio="xMidYMid meet">

<g transform="translate(0.000000,3340.000000) scale(0.100000,-0.100000)"
fill="#000000" stroke="none">
<path d="M7387 29218 l-7387 -4172 0 -8346 0 -8346 7382 -4169 c4060 -2293
7389 -4169 7398 -4169 8 0 2254 1265 4990 2811 2736 1545 6053 3419 7370 4163
1317 744 2401 1357 2408 1362 9 8 12 1690 12 8348 0 6658 -3 8340 -12 8348 -7
5 -2339 1324 -5183 2930 -2843 1605 -6160 3478 -7370 4162 -1210 683 -2205
1244 -2210 1246 -6 2 -3334 -1873 -7398 -4168z m7783 -3213 c612 -21 1316
-131 1950 -305 2321 -639 4315 -2219 5514 -4370 47 -85 83 -157 78 -161 -4 -4
-837 -476 -1852 -1049 -1015 -573 -1859 -1050 -1877 -1060 l-31 -18 -69 121
c-664 1176 -1801 2027 -3093 2315 -729 163 -1507 146 -2221 -48 -1819 -494
-3194 -2056 -3483 -3960 -45 -300 -51 -386 -51 -780 1 -407 9 -511 65 -845
168 -1002 652 -1938 1371 -2655 920 -919 2143 -1410 3424 -1377 890 23 1720
287 2465 783 620 412 1155 989 1523 1641 l69 121 66 -38 c37 -20 882 -497
1877 -1060 996 -562 1813 -1025 1817 -1029 17 -15 -238 -450 -459 -784 -989
-1494 -2407 -2676 -4037 -3366 -1428 -605 -3003 -821 -4554 -625 -2264 285
-4337 1445 -5819 3257 -1177 1438 -1905 3226 -2077 5102 -52 560 -52 1210 0
1770 118 1294 502 2555 1121 3683 1434 2616 4016 4372 6898 4691 482 54 817
65 1385 46z m6490 -7920 l0 -815 830 0 830 0 0 -570 0 -570 -830 0 -830 0 0
-815 0 -815 -550 0 -550 0 0 815 0 815 -825 0 -825 0 0 570 0 570 825 0 825 0
0 815 0 815 550 0 550 0 0 -815z m5130 0 l0 -815 825 0 825 0 0 -570 0 -570
-825 0 -825 0 0 -815 0 -815 -555 0 -555 0 0 815 0 815 -825 0 -825 0 0 570 0
570 825 0 825 0 0 815 0 815 555 0 555 0 0 -815z"/>
</g>
</svg>
