<?xml version="1.0" standalone="no"?>
<!DOCTYPE svg PUBLIC "-//W3C//DTD SVG 20010904//EN"
 "http://www.w3.org/TR/2001/REC-SVG-20010904/DTD/svg10.dtd">
<svg version="1.0" xmlns="http://www.w3.org/2000/svg"
 width="2957.000000pt" height="3339.000000pt" viewBox="0 0 2957.000000 3339.000000"
 preserveAspectRatio="xMidYMid meet">

<g transform="translate(0.000000,3339.000000) scale(0.100000,-0.100000)"
fill="#000000" stroke="none">
<path d="M9900 30627 c-2681 -1515 -6002 -3390 -7380 -4168 l-2505 -1415 -2
-8350 -3 -8349 2763 -1560 c1519 -857 4840 -2733 7380 -4167 2540 -1435 4622
-2609 4627 -2611 5 -1 3333 1874 7395 4168 l7385 4170 -3 8349 -2 8350 -2335
1319 c-1284 725 -4602 2599 -7373 4164 -2770 1565 -5045 2847 -5055 2849 -10
3 -2021 -1128 -4892 -2749z m14100 -4350 c0 -19 -32 -380 -70 -803 -39 -423
-401 -4416 -805 -8874 -404 -4458 -754 -8314 -778 -8569 l-42 -465 -1625 -467
c-894 -257 -2612 -751 -3819 -1098 l-2194 -631 -976 281 c-2386 686 -6302
1812 -6361 1829 l-66 20 -77 847 c-43 467 -161 1755 -262 2863 -101 1108 -187
2036 -190 2063 l-6 47 1840 0 1840 0 6 -42 c3 -24 66 -686 140 -1472 75 -786
136 -1430 138 -1431 1 -2 936 -246 2077 -544 l2075 -541 2014 560 c1108 308
2016 562 2019 565 7 6 403 4708 397 4713 -3 3 -2858 13 -6346 23 -4149 11
-6344 21 -6348 27 -9 15 -335 3662 -328 3669 4 3 3020 10 6704 16 3684 5 6700
12 6702 14 7 5 295 3702 289 3708 -3 3 -3163 -4 -7022 -16 -3859 -12 -7018
-20 -7020 -18 -5 4 -18 148 -206 2260 -72 801 -130 1466 -130 1478 l0 21 9215
0 9215 0 0 -33z"/>
</g>
</svg>
