<?xml version="1.0" standalone="no"?>
<!DOCTYPE svg PUBLIC "-//W3C//DTD SVG 20010904//EN"
 "http://www.w3.org/TR/2001/REC-SVG-20010904/DTD/svg10.dtd">
<svg version="1.0" xmlns="http://www.w3.org/2000/svg"
 width="2956.000000pt" height="3340.000000pt" viewBox="0 0 2956.000000 3340.000000"
 preserveAspectRatio="xMidYMid meet">

<g transform="translate(0.000000,3340.000000) scale(0.100000,-0.100000)"
fill="#000000" stroke="none">
<path d="M12600 32164 c-1191 -673 -4513 -2550 -7382 -4171 l-5218 -2947 0
-8345 0 -8346 7382 -4170 c4061 -2293 7390 -4169 7398 -4169 8 1 3334 1875
7390 4167 l7375 4166 0 8351 0 8352 -1845 1042 c-1015 573 -4333 2448 -7375
4166 -3041 1718 -5537 3124 -5545 3126 -8 1 -989 -548 -2180 -1222z m11392
-5895 c-1 -24 -45 -530 -97 -1124 -53 -594 -122 -1386 -155 -1760 -33 -374
-62 -704 -65 -732 l-6 -53 -7011 0 -7010 0 6 -72 c3 -40 63 -881 132 -1868 69
-987 127 -1796 129 -1798 2 -2 3051 41 6777 96 3725 55 6775 98 6777 96 3 -3
-618 -6390 -1082 -11133 l-42 -424 -1365 -368 c-751 -202 -2485 -670 -3855
-1039 -1530 -412 -2500 -669 -2515 -666 -14 3 -1150 331 -2525 729 -1375 399
-3024 877 -3665 1062 -641 186 -1169 341 -1174 346 -5 4 -41 353 -81 776 -364
3849 -468 4963 -464 4967 4 4 3672 -75 3677 -80 2 -1 68 -635 146 -1408 79
-774 145 -1408 147 -1410 2 -1 932 -256 2067 -566 l2063 -563 2020 544 c1112
299 2026 547 2032 551 7 4 85 837 222 2380 l211 2373 -6405 8 c-3522 4 -6406
8 -6407 10 -1 1 -156 1879 -343 4172 -188 2294 -393 4802 -456 5575 -64 772
-114 1409 -111 1415 3 8 2615 11 9217 10 l9214 -1 -3 -45z"/>
</g>
</svg>
