<?xml version="1.0" standalone="no"?>
<!DOCTYPE svg PUBLIC "-//W3C//DTD SVG 20010904//EN"
 "http://www.w3.org/TR/2001/REC-SVG-20010904/DTD/svg10.dtd">
<svg version="1.0" xmlns="http://www.w3.org/2000/svg"
 width="2957.000000pt" height="3339.000000pt" viewBox="0 0 2957.000000 3339.000000"
 preserveAspectRatio="xMidYMid meet">

<g transform="translate(0.000000,3339.000000) scale(0.100000,-0.100000)"
fill="#000000" stroke="none">
<path d="M9270 30274 c-3033 -1713 -6358 -3590 -7387 -4172 l-1873 -1057 3
-8349 2 -8349 180 -102 c3022 -1712 14576 -8229 14590 -8229 16 -1 4225 2373
14015 7904 l755 427 2 8349 3 8349 -2408 1360 c-1324 747 -4639 2620 -7367
4160 -2728 1541 -4969 2807 -4980 2813 -18 9 -758 -406 -5535 -3104z m12625
-1599 c3845 -2171 7004 -3955 7020 -3963 l30 -16 -2 -7999 -3 -8000 -37 -19
c-48 -26 -1998 -1127 -8733 -4931 -2951 -1667 -5374 -3031 -5385 -3031 -11 0
-2450 1373 -5420 3051 -7569 4275 -8708 4918 -8725 4925 -13 5 -15 902 -12
8004 l2 8000 2863 1616 c1574 889 4759 2688 7077 3997 l4214 2381 61 -34 c33
-18 3206 -1810 7050 -3981z"/>
</g>
</svg>
