<?xml version="1.0" standalone="no"?>
<!DOCTYPE svg PUBLIC "-//W3C//DTD SVG 20010904//EN"
 "http://www.w3.org/TR/2001/REC-SVG-20010904/DTD/svg10.dtd">
<svg version="1.0" xmlns="http://www.w3.org/2000/svg"
 width="2957.000000pt" height="3340.000000pt" viewBox="0 0 2957.000000 3340.000000"
 preserveAspectRatio="xMidYMid meet">

<g transform="translate(0.000000,3340.000000) scale(0.100000,-0.100000)"
fill="#000000" stroke="none">
<path d="M7395 29220 l-7380 -4168 -2 -8349 -3 -8348 2753 -1555 c8725 -4928
11984 -6768 12003 -6778 22 -12 -333 -212 13167 7413 l1627 919 -2 8349 -3
8350 -7380 4168 c-4059 2293 -7384 4168 -7390 4168 -5 0 -3331 -1876 -7390
-4169z m14440 -507 c3867 -2184 7047 -3979 7068 -3990 l37 -20 0 -7999 c0
-4400 -4 -8000 -8 -8002 -5 -1 -294 159 -643 356 -349 198 -635 358 -636 357
-7 -5 142 -312 157 -325 29 -24 40 -85 40 -220 0 -147 -8 -183 -54 -236 -18
-21 -43 -58 -54 -80 -16 -32 -37 -51 -89 -80 l-68 -39 -168 -3 c-169 -4 -219
3 -230 32 -3 7 -72 59 -154 116 -288 200 -619 446 -688 511 -38 36 -104 89
-145 116 -41 28 -95 72 -120 98 -55 58 -249 230 -350 312 -41 33 -175 160
-298 282 l-223 222 -57 -32 c-31 -17 -1985 -1121 -4342 -2452 -2357 -1331
-4548 -2568 -4870 -2749 -322 -182 -597 -339 -612 -349 l-27 -19 -617 349
-618 349 -66 -33 c-37 -18 -84 -37 -106 -40 -21 -4 -65 -18 -96 -31 -32 -13
-70 -24 -85 -24 -16 0 -49 -11 -75 -25 -26 -14 -61 -25 -78 -25 -17 0 -54 -12
-82 -26 -40 -20 -75 -28 -153 -35 -67 -5 -123 -16 -168 -33 -37 -14 -83 -26
-101 -26 -54 0 -154 36 -241 85 -129 74 -155 105 -205 254 -18 51 -51 130 -75
175 -23 45 -48 109 -55 142 -6 32 -31 100 -55 149 -24 50 -46 107 -50 128 -3
21 -32 93 -64 160 -32 67 -69 152 -82 189 l-23 67 -3841 2169 -3840 2169 -5
151 -5 152 -1939 -1095 c-1066 -602 -1940 -1095 -1942 -1095 -2 0 -3 3596 -2
7991 l3 7991 7070 3994 c3889 2196 7077 3992 7085 3990 8 -1 3179 -1789 7045
-3973z"/>
<path d="M24448 22178 c-752 -425 -1366 -774 -1364 -776 2 -1 617 344 1367
767 l1363 770 72 -39 c39 -21 99 -55 133 -75 l61 -36 1 -4872 c0 -2695 4
-4881 9 -4892 5 -11 8 2136 7 4874 l-2 4894 -139 78 c-76 44 -139 79 -140 79
0 0 -616 -348 -1368 -772z"/>
<path d="M21520 20524 c-415 -234 -759 -431 -765 -437 -5 -6 6 -1 25 9 1475
831 1515 854 1499 854 -2 0 -344 -192 -759 -426z"/>
<path d="M15805 17297 c-489 -277 -1387 -784 -1995 -1126 -608 -343 -1112
-630 -1120 -638 -17 -16 1 -6 1189 665 l883 499 690 -390 c379 -214 691 -387
693 -386 1 2 -305 177 -681 389 -376 212 -684 388 -684 391 0 4 432 250 960
549 826 466 974 551 958 550 -2 0 -403 -227 -893 -503z"/>
<path d="M8837 13363 c-939 -531 -1706 -967 -1704 -969 5 -5 3387 1904 3407
1922 8 8 12 14 10 13 -3 0 -773 -435 -1713 -966z"/>
<path d="M20750 13317 c10 -10 983 -557 986 -554 4 3 -958 549 -979 556 -7 2
-10 1 -7 -2z"/>
<path d="M5393 11417 c-468 -265 -850 -483 -848 -485 2 -2 372 204 822 458
897 507 902 510 888 509 -5 0 -393 -217 -862 -482z"/>
<path d="M26080 10658 c0 -41 -4 -49 -27 -62 -16 -8 -24 -15 -20 -16 5 0 22 8
38 17 22 13 29 25 29 48 0 16 -5 37 -10 45 -7 11 -10 2 -10 -32z"/>
</g>
</svg>
