<?xml version="1.0" standalone="no"?>
<!DOCTYPE svg PUBLIC "-//W3C//DTD SVG 20010904//EN"
 "http://www.w3.org/TR/2001/REC-SVG-20010904/DTD/svg10.dtd">
<svg version="1.0" xmlns="http://www.w3.org/2000/svg"
 width="2957.000000pt" height="3339.000000pt" viewBox="0 0 2957.000000 3339.000000"
 preserveAspectRatio="xMidYMid meet">

<g transform="translate(0.000000,3339.000000) scale(0.100000,-0.100000)"
fill="#000000" stroke="none">
<path d="M7395 29211 l-7380 -4168 -2 -8349 -2 -8349 1997 -1127 c1098 -620
4420 -2496 7382 -4169 2962 -1673 5390 -3042 5395 -3042 6 0 2670 1502 5920
3338 3251 1835 6573 3711 7382 4169 l1473 831 -3 8350 -2 8350 -7379 4167
c-4058 2293 -7384 4168 -7390 4168 -6 0 -3332 -1876 -7391 -4169z m14273 -412
c3771 -2130 6950 -3926 7065 -3990 l207 -117 0 -7998 c0 -5010 -4 -7999 -9
-7999 -13 0 -3110 1748 -3111 1756 0 3 60 39 133 80 l132 74 0 6089 0 6088
-5389 3044 -5389 3043 -61 -34 c-34 -19 -2458 -1388 -5388 -3042 l-5327 -3008
-1 -5936 0 -5937 -1948 -1100 -1947 -1099 -3 7986 -2 7986 21 14 c11 8 3194
1807 7072 3998 4188 2365 7059 3981 7070 3979 9 -2 3103 -1747 6875 -3877z
m-2891 -6008 l3458 -2029 2 -1163 3 -1164 -2283 -1231 -2282 -1231 -3 1053 -2
1052 -1172 687 c-644 378 -1179 689 -1187 691 -9 2 -542 -306 -1186 -684
l-1170 -687 -2 -1390 -3 -1390 1177 -690 c648 -379 1180 -689 1183 -688 3 1
12 4 20 7 15 6 4642 -2605 4648 -2623 2 -6 -4589 -2707 -4668 -2747 -3 -1
-1564 912 -3470 2030 l-3465 2033 -3 4065 -2 4065 3462 2032 c1905 1117 3468
2031 3475 2031 6 0 1568 -913 3470 -2029z m-3007 -5289 l455 -267 2 -540 3
-540 -452 -265 c-249 -146 -458 -266 -465 -268 -8 -2 -218 116 -468 263 l-455
267 0 542 0 541 453 267 c248 147 457 267 462 267 6 0 215 -120 465 -267z"/>
</g>
</svg>
