<?xml version="1.0" standalone="no"?>
<!DOCTYPE svg PUBLIC "-//W3C//DTD SVG 20010904//EN"
 "http://www.w3.org/TR/2001/REC-SVG-20010904/DTD/svg10.dtd">
<svg version="1.0" xmlns="http://www.w3.org/2000/svg"
 width="2956.000000pt" height="3340.000000pt" viewBox="0 0 2956.000000 3340.000000"
 preserveAspectRatio="xMidYMid meet">

<g transform="translate(0.000000,3340.000000) scale(0.100000,-0.100000)"
fill="#000000" stroke="none">
<path d="M10035 30712 c-2607 -1472 -5931 -3350 -7387 -4172 l-2648 -1495 0
-8345 0 -8345 7382 -4170 c4061 -2293 7390 -4169 7398 -4169 8 0 3337 1876
7397 4169 l7383 4170 0 8345 0 8345 -1323 746 c-727 411 -4049 2287 -7381
4169 -3333 1882 -6065 3424 -6070 3426 -6 2 -2144 -1201 -4751 -2674z m-3834
-4352 c713 -71 1821 -527 2287 -942 300 -267 363 -314 462 -355 78 -31 221
-43 524 -43 380 0 435 -7 806 -102 173 -44 397 -100 497 -124 298 -71 476
-135 727 -261 307 -154 1149 -676 1566 -971 1160 -822 2143 -1786 3015 -2957
596 -800 869 -1285 1306 -2318 349 -824 459 -1073 752 -1697 478 -1021 838
-1734 994 -1972 24 -37 59 -80 78 -97 73 -64 307 -175 935 -445 201 -87 435
-193 520 -236 684 -344 1588 -973 2370 -1649 180 -156 527 -501 644 -641 162
-195 255 -349 275 -455 13 -71 2 -89 -79 -130 -202 -102 -440 -154 -1190 -261
-472 -67 -658 -98 -821 -139 -53 -14 -169 -41 -259 -60 -314 -68 -409 -117
-410 -208 0 -75 72 -170 231 -303 126 -105 248 -188 594 -409 730 -466 991
-660 1408 -1049 120 -112 422 -429 587 -616 312 -354 559 -711 586 -846 6 -31
5 -32 -35 -39 -59 -10 -135 11 -189 53 -26 19 -94 84 -152 142 -78 79 -144
134 -255 210 -82 57 -220 156 -306 221 -362 272 -646 441 -1036 615 -364 163
-731 346 -866 431 -60 37 -190 128 -290 201 -100 73 -270 195 -377 269 -107
75 -227 160 -267 190 -298 220 -604 601 -801 998 -117 236 -122 346 -17 451
66 66 158 110 355 169 85 26 277 87 427 136 441 145 698 203 1002 229 74 6
367 15 652 19 285 5 522 12 528 16 17 10 -22 76 -84 143 -128 138 -366 317
-912 683 -205 137 -414 282 -465 322 -245 192 -454 323 -748 471 -414 209
-855 379 -1425 551 -442 133 -571 191 -736 329 -255 213 -454 557 -917 1581
-105 232 -256 560 -337 730 -179 378 -266 570 -568 1251 -479 1080 -721 1570
-1017 2064 -805 1342 -2075 2649 -3508 3608 -1010 676 -1870 1027 -2740 1116
-85 9 -276 20 -425 26 -406 14 -497 25 -607 72 -73 31 -226 139 -360 254 -157
134 -298 240 -404 303 -143 84 -475 257 -651 340 -543 253 -884 362 -1087 349
-134 -9 -272 -100 -326 -216 -24 -51 -27 -68 -26 -167 0 -134 26 -220 115
-395 101 -198 200 -342 464 -670 417 -519 784 -1083 972 -1493 127 -277 179
-430 323 -942 150 -535 235 -781 397 -1155 232 -533 406 -804 782 -1220 273
-301 313 -424 255 -771 -27 -166 -71 -299 -206 -634 -153 -381 -176 -461 -237
-830 -126 -759 -136 -980 -76 -1695 35 -424 45 -511 71 -660 40 -224 154 -605
256 -860 179 -444 389 -703 606 -749 100 -21 98 -23 116 77 27 148 44 284 76
622 68 713 130 966 345 1405 188 383 375 634 535 713 99 50 110 47 158 -45 51
-99 142 -313 332 -782 251 -620 266 -651 618 -1286 868 -1566 1671 -2676 2180
-3010 23 -15 42 -31 42 -35 0 -14 -52 -30 -98 -30 -115 0 -256 103 -587 430
-137 135 -320 305 -405 376 -823 685 -1384 1284 -1591 1695 -27 55 -93 193
-145 307 -167 364 -291 587 -367 660 l-34 33 -12 -83 c-25 -179 -114 -693
-152 -888 -41 -205 -114 -451 -169 -574 -114 -256 -271 -371 -554 -406 -350
-44 -629 61 -906 340 -332 335 -623 919 -819 1645 -151 561 -221 1087 -207
1565 22 756 145 1473 391 2285 120 395 144 479 150 520 6 39 1 48 -206 350
-383 559 -460 681 -572 902 -191 377 -283 614 -549 1403 -309 919 -415 1182
-602 1498 -80 135 -114 181 -351 477 -512 641 -796 1075 -939 1435 -78 197
-90 264 -89 490 0 176 3 205 26 292 50 188 143 352 287 502 109 114 217 195
344 256 197 96 361 123 597 100z m3174 -3335 c130 -30 250 -100 364 -209 169
-164 251 -339 251 -537 0 -183 -71 -345 -222 -513 l-53 -59 -31 16 c-83 43
-157 159 -273 425 -27 62 -64 138 -83 169 -37 62 -159 212 -283 348 -115 126
-134 169 -115 260 l11 53 72 17 c40 10 97 23 127 30 74 18 162 18 235 0z"/>
</g>
</svg>
