<?xml version="1.0" standalone="no"?>
<!DOCTYPE svg PUBLIC "-//W3C//DTD SVG 20010904//EN"
 "http://www.w3.org/TR/2001/REC-SVG-20010904/DTD/svg10.dtd">
<svg version="1.0" xmlns="http://www.w3.org/2000/svg"
 width="2957.000000pt" height="3340.000000pt" viewBox="0 0 2957.000000 3340.000000"
 preserveAspectRatio="xMidYMid meet">

<g transform="translate(0.000000,3340.000000) scale(0.100000,-0.100000)"
fill="#000000" stroke="none">
<path d="M8800 30009 c-3292 -1859 -6616 -3736 -7387 -4172 l-1403 -792 0
-8346 0 -8347 2263 -1277 c1244 -703 4568 -2581 7386 -4172 2818 -1592 5130
-2892 5137 -2889 8 3 2432 1371 5386 3040 2955 1669 6273 3542 7373 4164
l2000 1129 3 8350 2 8350 -2192 1238 c-1206 681 -4530 2559 -7386 4172 -2857
1613 -5195 2933 -5195 2933 -1 0 -2695 -1521 -5987 -3381z m6954 -3880 c2 -2
8 -768 12 -1703 l7 -1698 -244 6 c-441 12 -3253 66 -3795 73 l-531 6 -8 -7756
c-4 -4267 -11 -7757 -16 -7757 -4 0 -409 126 -901 281 -491 154 -1093 343
-1338 420 -245 76 -455 143 -467 149 l-22 9 5 5628 c2 3095 7 6399 10 7341 l6
1712 267 1 c236 2 -1625 31 -3621 57 -528 7 -721 12 -732 21 -89 74 -207 713
-356 1921 -34 276 -150 1280 -150 1297 0 7 11867 -1 11874 -8z m9936 -165 c0
-30 -68 -820 -105 -1229 -105 -1139 -192 -1790 -258 -1925 l-22 -45 -60 -3
c-98 -4 -5529 -102 -5664 -102 l-124 0 6 -2482 c4 -1364 8 -2482 9 -2483 2 -2
1256 143 2787 321 1532 178 2787 322 2789 319 6 -6 -763 -9114 -770 -9120 -2
-2 -302 -80 -668 -175 -1113 -287 -6853 -1768 -6882 -1775 l-28 -7 0 643 c0
354 3 1079 7 1610 l6 967 92 45 c307 152 1160 412 2460 752 721 189 1836 463
2559 631 175 40 320 75 322 76 3 3 123 2791 120 2795 -1 1 -1251 -214 -2779
-479 -1528 -264 -2781 -477 -2784 -474 -6 6 12 8490 23 10819 l7 1347 4478 0
4479 0 0 -26z"/>
<path d="M9293 22833 c82 -2 212 -2 290 0 78 1 12 3 -148 3 -159 0 -223 -2
-142 -3z"/>
<path d="M10103 22823 c64 -2 170 -2 235 0 64 1 11 3 -118 3 -129 0 -182 -2
-117 -3z"/>
<path d="M10912 22813 c48 -2 129 -2 180 0 51 1 12 3 -87 3 -99 0 -141 -2 -93
-3z"/>
</g>
</svg>
